HIERARCHY
ROOT hip
{
	OFFSET 0.000000 0.000000 0.000000 
	CHANNELS 6 Xposition Yposition Zposition Xrotation Zrotation Yrotation
	JOINT abdomen
	{
		OFFSET 0.000000 3.402643 0.000000 
		CHANNELS 3 Xrotation Zrotation Yrotation
		JOINT chest
		{
			OFFSET 0.000000 8.438565 -0.680529 
			CHANNELS 3 Xrotation Zrotation Yrotation
			JOINT neck
			{
				OFFSET 0.000000 10.207942 -0.272212 
				CHANNELS 3 Xrotation Zrotation Yrotation
				JOINT head
				{
					OFFSET 0.000000 3.130431 0.000000 
					CHANNELS 3 Xrotation Zrotation Yrotation
					End Site
					{
						OFFSET 0.000000 3.130435 0.000000 
					}
				}
			}
			JOINT lCollar
			{
				OFFSET 3.470700 6.669187 -0.816635 
				CHANNELS 3 Yrotation Zrotation Xrotation
				JOINT lShldr
				{
					OFFSET 3.198488 0.000000 0.000000 
					CHANNELS 3 Zrotation Yrotation Xrotation
					JOINT lForeArm
					{
						OFFSET 10.139888 0.000000 0.000000 
						CHANNELS 3 Yrotation Zrotation Xrotation
						JOINT lHand
						{
							OFFSET 8.370511 0.000000 0.000000 
							CHANNELS 3 Zrotation Yrotation Xrotation
							End Site
							{
								OFFSET 4.083176 0.000000 0.000000 
							}
						}
					}
				}
			}
			JOINT rCollar
			{
				OFFSET -3.470700 6.669187 -0.816635 
				CHANNELS 3 Yrotation Zrotation Xrotation
				JOINT rShldr
				{
					OFFSET -3.198488 0.000000 0.000000 
					CHANNELS 3 Zrotation Yrotation Xrotation
					JOINT rForeArm
					{
						OFFSET -10.139888 0.000000 0.000000 
						CHANNELS 3 Yrotation Zrotation Xrotation
						JOINT rHand
						{
							OFFSET -8.370511 0.000000 0.000000 
							CHANNELS 3 Zrotation Yrotation Xrotation
							End Site
							{
								OFFSET -4.083176 0.000000 0.000000 
							}
						}
					}
				}
			}
		}
	}
	JOINT lThigh
	{
		OFFSET 5.308129 -1.633274 1.361059 
		CHANNELS 3 Xrotation Zrotation Yrotation
		JOINT lShin
		{
			OFFSET -2.041588 -20.007561 0.000000 
			CHANNELS 3 Xrotation Zrotation Yrotation
			JOINT lFoot
			{
				OFFSET 0.000000 -19.190928 -1.224953 
				CHANNELS 3 Xrotation Yrotation Zrotation
				End Site
				{
					OFFSET 0.000000 -2.449906 4.627600 
				}
			}
		}
	}
	JOINT rThigh
	{
		OFFSET -5.308129 -1.633274 1.361059 
		CHANNELS 3 Xrotation Zrotation Yrotation
		JOINT rShin
		{
			OFFSET 2.041588 -20.007561 0.000000 
			CHANNELS 3 Xrotation Zrotation Yrotation
			JOINT rFoot
			{
				OFFSET 0.000000 -19.190928 -1.224953 
				CHANNELS 3 Xrotation Yrotation Zrotation
				End Site
				{
					OFFSET 0.000000 -2.449906 4.627600 
				}
			}
		}
	}
}
MOTION
Frames: 14
Frame Time: 0.016667
-0.798669 47.535156 -0.347176 -5.314835 2.596663 -5.210337 16.115040 -8.599627 7.456160 -9.789499 -2.457178 6.001446 23.115799 -6.708633 -0.591052 -21.930017 13.447569 38.159126 9.082082 4.695091 23.588978 -41.854343 -22.022585 -0.308581 -90.810455 -2.854279 11.406526 -45.001968 -39.539246 18.469227 -7.365613 -5.395580 23.895235 44.897846 14.114753 100.672478 35.824429 -27.214712 11.457967 25.375242 41.971794 -12.585939 -6.305474 4.546073 18.447598 42.205887 -5.168499 -3.021902 -10.900650 -9.063010 -0.234221 -14.956236 -12.066403 -2.021041 55.146606 12.067161 6.748128 -6.019386 2.103323 10.433925 
-0.798669 47.535156 -0.347176 -5.314835 2.596663 -5.210337 16.115040 -8.599627 7.456160 -9.789499 -2.457178 6.001446 23.115799 -6.708633 -0.591052 -21.930017 13.447569 38.159126 9.082082 4.695091 23.588978 -41.854343 -22.022585 -0.308581 -90.810455 -2.854279 11.406526 -45.001968 -39.539246 18.469227 -7.365613 -5.395580 23.895235 44.897846 14.114753 100.672478 35.824429 -27.214712 11.457967 25.375242 41.971794 -12.585939 -6.305474 4.546073 18.447598 42.205887 -5.168499 -3.021902 -10.900650 -9.063010 -0.234221 -14.956236 -12.066403 -2.021041 55.146606 12.067161 6.748128 -6.019386 2.103323 10.433925 
-0.893730 47.333504 -0.450565 -5.232254 2.459769 -5.395283 16.115040 -8.599627 7.456160 -9.453089 -2.311372 6.029923 22.556456 -7.040608 -0.620171 -21.717548 13.676964 38.642937 8.950252 4.825778 23.580223 -40.822948 -23.168213 -0.765063 -92.156891 -1.829865 14.137283 -46.042084 -40.152847 19.296507 -7.332825 -5.641480 23.862906 45.350445 13.641000 101.141899 36.480499 -26.886929 12.009305 25.879175 43.283501 -11.036163 -8.872951 6.273477 18.881771 46.849903 -5.411046 -3.256243 -9.929710 -10.010160 -2.437798 -15.202806 -11.677893 -1.893224 55.278122 12.206383 6.811260 -8.196968 1.642218 9.364963 
-0.988786 47.131863 -0.553947 -5.139975 2.332653 -5.580679 16.115040 -8.599627 7.456160 -9.107134 -2.165541 6.068593 21.986544 -7.382357 -0.640797 -21.495266 13.915046 39.138905 8.827448 4.960437 23.570898 -39.773586 -24.303532 -1.249897 -93.552322 -0.859705 16.893902 -47.118038 -40.754593 20.165234 -7.313265 -5.882429 23.829481 45.807583 13.151926 101.609154 37.135693 -26.553610 12.560923 26.459408 44.574581 -9.433994 -11.452312 8.023357 19.246531 51.507492 -5.597520 -3.524171 -8.972894 -11.008293 -4.635151 -15.467940 -11.298250 -1.746200 55.398155 12.363136 6.843334 -10.393588 1.216845 8.311893 
-1.058737 47.040348 -0.675848 -5.126344 2.156371 -5.931606 16.115040 -8.599627 7.456160 -8.746020 -1.971180 6.106944 21.628939 -7.597172 -0.650493 -21.335581 14.142557 39.628445 8.737123 4.995756 23.577307 -39.026924 -25.339214 -1.567781 -94.279221 -0.243690 18.896042 -48.008297 -41.267345 20.963272 -7.213877 -5.986552 23.827845 46.150982 12.816428 101.953499 37.304726 -26.577286 12.745907 26.960835 45.806133 -7.932688 -13.631022 9.743428 19.698513 55.502045 -5.678449 -3.741018 -8.546116 -11.406453 -6.008541 -15.784422 -10.923068 -1.627377 55.520260 12.430440 6.871592 -11.131147 0.815654 8.230052 
-1.128684 46.948853 -0.797743 -5.101525 1.989975 -6.273195 16.115040 -8.599627 7.456160 -8.384646 -1.776846 6.145367 21.263102 -7.821737 -0.671174 -21.168888 14.363256 40.127758 8.638657 5.025693 23.574732 -38.260105 -26.369658 -1.902453 -95.027206 0.341594 20.904829 -48.907654 -41.777851 21.770227 -7.118463 -6.081763 23.826263 46.501717 12.468235 102.298340 37.465282 -26.602068 12.927224 27.517752 47.024979 -6.379916 -15.800987 11.475019 20.070812 59.525761 -5.766770 -3.949428 -8.113128 -11.844810 -7.378193 -16.121346 -10.565322 -1.511016 55.661324 12.499784 6.931345 -11.875569 0.398539 8.113208 
-1.166660 46.993874 -0.895038 -5.191481 1.901292 -6.624561 16.115040 -8.599627 7.456160 -8.129570 -1.669980 6.164605 21.305145 -7.958430 -0.680859 -21.078712 14.544753 40.568996 8.540955 4.954876 23.600204 -37.860695 -27.252890 -2.073180 -95.131569 0.493705 22.262133 -49.598305 -42.149212 22.400227 -7.075496 -6.032522 23.837296 46.749889 12.169541 102.571678 37.349415 -26.746778 12.904492 27.913437 47.880501 -5.335798 -17.047337 12.582554 20.332354 62.108768 -5.737643 -4.010925 -8.391431 -11.571646 -7.544923 -15.961654 -10.201902 -1.395182 55.143486 12.371005 6.830033 -11.688876 0.010069 8.553850 
-1.204631 47.038906 -0.992332 -5.291310 1.822355 -6.975944 16.115040 -8.599627 7.456160 -7.864658 -1.563121 6.183859 21.357119 -8.104889 -0.690534 -20.985147 14.722409 41.012951 8.448367 4.896844 23.624971 -37.469761 -28.126596 -2.251160 -95.240936 0.631829 23.626076 -50.296741 -42.510204 23.041874 -7.031536 -5.984460 23.857969 47.008427 11.869123 102.845016 37.228458 -26.887232 12.894093 28.315767 48.730556 -4.288740 -18.297434 13.705652 20.575636 64.740402 -5.708128 -4.065961 -8.714079 -11.298141 -7.704418 -15.807459 -9.841986 -1.288757 54.627605 12.223218 6.759832 -11.447246 -0.414140 8.986854 
-1.206798 47.198872 -1.045465 -5.559051 1.782481 -7.259315 16.115040 -8.599627 7.456160 -7.654833 -1.514521 6.203126 21.769875 -8.202521 -0.701592 -20.916521 14.785823 41.327530 8.342926 4.843769 23.651165 -37.616486 -28.891430 -2.151260 -94.843567 0.428644 24.801493 -51.224098 -42.957722 23.973087 -7.087158 -5.882434 23.862989 47.229633 11.575003 103.102402 36.898060 -27.001871 12.580218 28.802864 49.479187 -3.251897 -18.298508 14.049045 20.720573 65.737328 -5.591196 -4.104681 -8.913198 -10.530231 -7.172539 -14.949680 -9.423022 -1.193668 53.348255 11.835884 6.558208 -10.823114 -0.998946 9.928694 
-1.208961 47.358852 -1.098596 -5.826403 1.742613 -7.542387 16.115040 -8.599627 7.456160 -7.443671 -1.456244 6.212894 22.193974 -8.309898 -0.720931 -20.849415 14.849905 41.632828 8.238344 4.789213 23.667650 -37.772091 -29.640303 -2.052020 -94.441170 0.215118 25.984009 -52.172516 -43.396416 24.925640 -7.129855 -5.785406 23.867661 47.446602 11.269587 103.355721 36.570522 -27.108171 12.271551 29.308912 50.222488 -2.197004 -18.299509 14.402197 20.874369 66.754707 -5.454240 -4.112590 -9.126700 -9.744912 -6.642375 -14.086172 -9.000471 -1.062051 52.048779 11.472627 6.329465 -10.159595 -1.570801 10.878856 
-1.162484 47.568043 -1.112051 -6.083711 1.847916 -7.816284 16.115040 -8.599627 7.456160 -7.413316 -1.446535 6.212894 22.812775 -8.475883 -0.732035 -20.785351 14.847915 41.848595 8.199440 4.731310 23.679470 -38.316784 -30.282593 -1.781008 -93.754799 -0.267967 27.027676 -52.975552 -43.922752 25.882317 -7.220431 -5.750524 23.861637 47.601757 10.970995 103.583595 36.390656 -27.243839 11.970188 30.232496 50.952366 -0.821597 -17.245205 13.885180 20.803738 66.243225 -5.445644 -4.094380 -9.100614 -8.881452 -6.325669 -13.054490 -8.807187 -1.070537 50.516186 10.996103 6.072506 -9.314317 -1.919087 11.836833 
-1.116003 47.777237 -1.125500 -6.351797 1.953037 -8.090528 16.115040 -8.599627 7.456160 -7.391672 -1.427119 6.212651 23.433247 -8.651613 -0.751370 -20.716900 14.854903 42.057598 8.156621 4.682336 23.691290 -38.882942 -30.928165 -1.492930 -93.065506 -0.727409 28.069788 -53.783272 -44.453304 26.849079 -7.311003 -5.715632 23.855587 47.752838 10.661837 103.808365 36.216274 -27.382271 11.675172 31.204006 51.665539 0.609145 -16.179312 13.365019 20.723055 65.712471 -5.445261 -4.059418 -9.060703 -8.033895 -6.027468 -11.997576 -8.600431 -1.055665 48.973927 10.537010 5.830269 -8.455614 -2.271109 12.824946 
-1.033575 47.952538 -1.103979 -6.519873 2.086640 -8.423370 16.115040 -8.599627 7.456160 -7.559454 -1.349403 6.232183 24.091787 -8.856652 -0.761029 -20.611595 14.867460 42.206360 8.119833 4.595032 23.712595 -39.364754 -31.355408 -1.256104 -92.554832 -1.362854 28.957991 -54.418655 -44.919170 27.627523 -7.452513 -5.785162 23.827806 47.745094 10.377308 103.943916 36.471237 -27.585413 11.588765 32.752686 52.331642 2.542191 -14.364002 12.312187 20.536676 63.813534 -5.434144 -3.994302 -8.886596 -7.495344 -6.218741 -11.149652 -8.650277 -1.106568 47.703880 10.224567 5.639882 -7.864738 -2.260377 13.223264 
-0.951144 48.127823 -1.082455 -6.680124 2.219881 -8.766380 16.115040 -8.599627 7.456160 -7.726122 -1.261984 6.251490 24.752092 -9.071436 -0.781851 -20.501877 14.889180 42.345905 8.083872 4.506329 23.724283 -39.855949 -31.786932 -1.007915 -92.039726 -1.978992 29.847340 -55.079189 -45.373966 28.433996 -7.597069 -5.846936 23.810501 47.743908 10.074002 104.080353 36.723507 -27.779757 11.502654 34.366058 52.958160 4.553645 -12.544799 11.242264 20.343960 61.935925 -5.376608 -3.919221 -8.725656 -6.992794 -6.430485 -10.278742 -8.677809 -1.158452 46.409855 9.882002 5.454159 -7.268482 -2.244649 13.632890 
